<svg xmlns="http://www.w3.org/2000/svg" viewBox="0 0 520 520" role="img" aria-label="Illustrative pollution rose showing dominant wind direction from S/SSW carrying high-concentration pollutant plumes.">
  <title>Illustrative pollution rose</title>
  <desc>Compass-oriented pie chart where each wedge represents a wind-direction sector. Wedge length shows how frequently wind blows from that direction; wedge color shows concentration bin (green low, yellow medium, red high). This example illustrates a Corpus Christi–style Gulf-breeze pattern with dominant winds from S/SSW.</desc>
  <style>
    .grid-ring { fill: none; stroke: #cbd5e0; stroke-dasharray: 2 4; stroke-width: 1; }
    .grid-line { stroke: #cbd5e0; stroke-dasharray: 2 4; stroke-width: 1; }
    .cardinal { font: bold 17px 'Segoe UI', Arial, sans-serif; fill: #1a202c; }
    .ordinal { font: 11px 'Segoe UI', Arial, sans-serif; fill: #4a5568; }
    .caption { font: 12px 'Segoe UI', Arial, sans-serif; fill: #4a5568; }
    @media (prefers-color-scheme: dark) {
      .grid-ring, .grid-line { stroke: #4a5568; }
      .cardinal { fill: #e2e8f0; }
      .ordinal, .caption { fill: #a0aec0; }
    }
  </style>
  <circle class="grid-ring" cx="260" cy="260" r="60"/>
  <circle class="grid-ring" cx="260" cy="260" r="120"/>
  <circle class="grid-ring" cx="260" cy="260" r="180"/>
  <circle class="grid-ring" cx="260" cy="260" r="240"/>
  <line class="grid-line" x1="260" y1="20" x2="260" y2="500"/>
  <line class="grid-line" x1="20" y1="260" x2="500" y2="260"/>
  <path d="M 260.00 260.00 L 257.54 247.64 A 12.60 12.60 0 0 1 262.46 247.64 Z" fill="#4caf50" opacity="0.92"/>
  <path d="M 255.43 237.05 A 23.40 23.40 0 0 1 264.57 237.05 L 262.46 247.64 A 12.60 12.60 0 0 0 257.54 247.64 Z" fill="#fbc02d" opacity="0.92"/>
  <path d="M 252.98 224.69 A 36.00 36.00 0 0 1 267.02 224.69 L 264.57 237.05 A 23.40 23.40 0 0 0 255.43 237.05 Z" fill="#e53935" opacity="0.92"/>
  <path d="M 260.00 260.00 L 261.97 250.11 A 10.08 10.08 0 0 1 265.60 251.62 Z" fill="#4caf50" opacity="0.92"/>
  <path d="M 263.65 241.64 A 18.72 18.72 0 0 1 270.40 244.43 L 265.60 251.62 A 10.08 10.08 0 0 0 261.97 250.11 Z" fill="#fbc02d" opacity="0.92"/>
  <path d="M 265.62 231.75 A 28.80 28.80 0 0 1 276.00 236.05 L 270.40 244.43 A 18.72 18.72 0 0 0 263.65 241.64 Z" fill="#e53935" opacity="0.92"/>
  <path d="M 260.00 260.00 L 264.67 253.02 A 8.40 8.40 0 0 1 266.98 255.33 Z" fill="#4caf50" opacity="0.92"/>
  <path d="M 268.67 247.03 A 15.60 15.60 0 0 1 272.97 251.33 L 266.98 255.33 A 8.40 8.40 0 0 0 264.67 253.02 Z" fill="#fbc02d" opacity="0.92"/>
  <path d="M 273.33 240.04 A 24.00 24.00 0 0 1 279.96 246.67 L 272.97 251.33 A 15.60 15.60 0 0 0 268.67 247.03 Z" fill="#e53935" opacity="0.92"/>
  <path d="M 260.00 260.00 L 270.48 253.00 A 12.60 12.60 0 0 1 272.36 257.54 Z" fill="#4caf50" opacity="0.92"/>
  <path d="M 279.46 247.00 A 23.40 23.40 0 0 1 282.95 255.43 L 272.36 257.54 A 12.60 12.60 0 0 0 270.48 253.00 Z" fill="#fbc02d" opacity="0.92"/>
  <path d="M 289.93 240.00 A 36.00 36.00 0 0 1 295.31 252.98 L 282.95 255.43 A 23.40 23.40 0 0 0 279.46 247.00 Z" fill="#e53935" opacity="0.92"/>
  <path d="M 260.00 260.00 L 280.60 255.90 A 21.00 21.00 0 0 1 280.60 264.10 Z" fill="#4caf50" opacity="0.92"/>
  <path d="M 298.25 252.39 A 39.00 39.00 0 0 1 298.25 267.61 L 280.60 264.10 A 21.00 21.00 0 0 0 280.60 255.90 Z" fill="#fbc02d" opacity="0.92"/>
  <path d="M 318.85 248.29 A 60.00 60.00 0 0 1 318.85 271.71 L 298.25 267.61 A 39.00 39.00 0 0 0 298.25 252.39 Z" fill="#e53935" opacity="0.92"/>
  <path d="M 260.00 260.00 L 288.84 265.74 A 29.40 29.40 0 0 1 284.45 276.33 Z" fill="#4caf50" opacity="0.92"/>
  <path d="M 313.55 270.65 A 54.60 54.60 0 0 1 305.40 290.33 L 284.45 276.33 A 29.40 29.40 0 0 0 288.84 265.74 Z" fill="#fbc02d" opacity="0.92"/>
  <path d="M 342.39 276.39 A 84.00 84.00 0 0 1 329.84 306.67 L 305.40 290.33 A 54.60 54.60 0 0 0 313.55 270.65 Z" fill="#e53935" opacity="0.92"/>
  <path d="M 260.00 260.00 L 294.92 283.33 A 42.00 42.00 0 0 1 283.33 294.92 Z" fill="#4caf50" opacity="0.92"/>
  <path d="M 324.85 303.33 A 78.00 78.00 0 0 1 303.33 324.85 L 283.33 294.92 A 42.00 42.00 0 0 0 294.92 283.33 Z" fill="#fbc02d" opacity="0.92"/>
  <path d="M 359.78 326.67 A 120.00 120.00 0 0 1 326.67 359.78 L 303.33 324.85 A 78.00 78.00 0 0 0 324.85 303.33 Z" fill="#e53935" opacity="0.92"/>
  <path d="M 260.00 260.00 L 295.00 312.38 A 63.00 63.00 0 0 1 272.29 321.79 Z" fill="#4caf50" opacity="0.92"/>
  <path d="M 325.00 357.28 A 117.00 117.00 0 0 1 282.83 374.75 L 272.29 321.79 A 63.00 63.00 0 0 0 295.00 312.38 Z" fill="#fbc02d" opacity="0.92"/>
  <path d="M 360.00 409.66 A 180.00 180.00 0 0 1 295.12 436.54 L 282.83 374.75 A 117.00 117.00 0 0 0 325.00 357.28 Z" fill="#e53935" opacity="0.92"/>
  <path d="M 260.00 260.00 L 274.75 334.15 A 75.60 75.60 0 0 1 245.25 334.15 Z" fill="#4caf50" opacity="0.92"/>
  <path d="M 287.39 397.70 A 140.40 140.40 0 0 1 232.61 397.70 L 245.25 334.15 A 75.60 75.60 0 0 0 274.75 334.15 Z" fill="#fbc02d" opacity="0.92"/>
  <path d="M 302.14 471.85 A 216.00 216.00 0 0 1 217.86 471.85 L 232.61 397.70 A 140.40 140.40 0 0 0 287.39 397.70 Z" fill="#e53935" opacity="0.92"/>
  <path d="M 260.00 260.00 L 243.61 342.39 A 84.00 84.00 0 0 1 213.33 329.84 Z" fill="#4caf50" opacity="0.92"/>
  <path d="M 229.57 413.00 A 156.00 156.00 0 0 1 173.33 389.71 L 213.33 329.84 A 84.00 84.00 0 0 0 243.61 342.39 Z" fill="#fbc02d" opacity="0.92"/>
  <path d="M 213.18 495.39 A 240.00 240.00 0 0 1 126.66 459.55 L 173.33 389.71 A 156.00 156.00 0 0 0 229.57 413.00 Z" fill="#e53935" opacity="0.92"/>
  <path d="M 260.00 260.00 L 220.33 319.37 A 71.40 71.40 0 0 1 200.63 299.67 Z" fill="#4caf50" opacity="0.92"/>
  <path d="M 186.33 370.25 A 132.60 132.60 0 0 1 149.75 333.67 L 200.63 299.67 A 71.40 71.40 0 0 0 220.33 319.37 Z" fill="#fbc02d" opacity="0.92"/>
  <path d="M 146.66 429.62 A 204.00 204.00 0 0 1 90.38 373.34 L 149.75 333.67 A 132.60 132.60 0 0 0 186.33 370.25 Z" fill="#e53935" opacity="0.92"/>
  <path d="M 260.00 260.00 L 218.09 288.00 A 50.40 50.40 0 0 1 210.57 269.83 Z" fill="#4caf50" opacity="0.92"/>
  <path d="M 182.17 312.00 A 93.60 93.60 0 0 1 168.20 278.26 L 210.57 269.83 A 50.40 50.40 0 0 0 218.09 288.00 Z" fill="#fbc02d" opacity="0.92"/>
  <path d="M 140.27 340.00 A 144.00 144.00 0 0 1 118.77 288.09 L 168.20 278.26 A 93.60 93.60 0 0 0 182.17 312.00 Z" fill="#e53935" opacity="0.92"/>
  <path d="M 260.00 260.00 L 231.16 265.74 A 29.40 29.40 0 0 1 231.16 254.26 Z" fill="#4caf50" opacity="0.92"/>
  <path d="M 206.45 270.65 A 54.60 54.60 0 0 1 206.45 249.35 L 231.16 254.26 A 29.40 29.40 0 0 0 231.16 265.74 Z" fill="#fbc02d" opacity="0.92"/>
  <path d="M 177.61 276.39 A 84.00 84.00 0 0 1 177.61 243.61 L 206.45 249.35 A 54.60 54.60 0 0 0 206.45 270.65 Z" fill="#e53935" opacity="0.92"/>
  <path d="M 260.00 260.00 L 239.40 255.90 A 21.00 21.00 0 0 1 242.54 248.33 Z" fill="#4caf50" opacity="0.92"/>
  <path d="M 221.75 252.39 A 39.00 39.00 0 0 1 227.57 238.33 L 242.54 248.33 A 21.00 21.00 0 0 0 239.40 255.90 Z" fill="#fbc02d" opacity="0.92"/>
  <path d="M 201.15 248.29 A 60.00 60.00 0 0 1 210.11 226.67 L 227.57 238.33 A 39.00 39.00 0 0 0 221.75 252.39 Z" fill="#e53935" opacity="0.92"/>
  <path d="M 260.00 260.00 L 249.52 253.00 A 12.60 12.60 0 0 1 253.00 249.52 Z" fill="#4caf50" opacity="0.92"/>
  <path d="M 240.54 247.00 A 23.40 23.40 0 0 1 247.00 240.54 L 253.00 249.52 A 12.60 12.60 0 0 0 249.52 253.00 Z" fill="#fbc02d" opacity="0.92"/>
  <path d="M 230.07 240.00 A 36.00 36.00 0 0 1 240.00 230.07 L 247.00 240.54 A 23.40 23.40 0 0 0 240.54 247.00 Z" fill="#e53935" opacity="0.92"/>
  <path d="M 260.00 260.00 L 253.00 249.52 A 12.60 12.60 0 0 1 257.54 247.64 Z" fill="#4caf50" opacity="0.92"/>
  <path d="M 247.00 240.54 A 23.40 23.40 0 0 1 255.43 237.05 L 257.54 247.64 A 12.60 12.60 0 0 0 253.00 249.52 Z" fill="#fbc02d" opacity="0.92"/>
  <path d="M 240.00 230.07 A 36.00 36.00 0 0 1 252.98 224.69 L 255.43 237.05 A 23.40 23.40 0 0 0 247.00 240.54 Z" fill="#e53935" opacity="0.92"/>
  <text class="cardinal" x="260.00" y="-1.00" text-anchor="middle">N</text>
  <text class="ordinal" x="360.26" y="22.94" text-anchor="middle">NNE</text>
  <text class="ordinal" x="445.26" y="79.74" text-anchor="middle">NE</text>
  <text class="ordinal" x="502.06" y="164.74" text-anchor="middle">ENE</text>
  <text class="cardinal" x="526.00" y="265.00" text-anchor="middle">E</text>
  <text class="ordinal" x="502.06" y="365.26" text-anchor="middle">ESE</text>
  <text class="ordinal" x="445.26" y="450.26" text-anchor="middle">SE</text>
  <text class="ordinal" x="360.26" y="507.06" text-anchor="middle">SSE</text>
  <text class="cardinal" x="260.00" y="531.00" text-anchor="middle">S</text>
  <text class="ordinal" x="159.74" y="507.06" text-anchor="middle">SSW</text>
  <text class="ordinal" x="74.74" y="450.26" text-anchor="middle">SW</text>
  <text class="ordinal" x="17.94" y="365.26" text-anchor="middle">WSW</text>
  <text class="cardinal" x="-6.00" y="265.00" text-anchor="middle">W</text>
  <text class="ordinal" x="17.94" y="164.74" text-anchor="middle">WNW</text>
  <text class="ordinal" x="74.74" y="79.74" text-anchor="middle">NW</text>
  <text class="ordinal" x="159.74" y="22.94" text-anchor="middle">NNW</text>
  <circle cx="260" cy="260" r="7" fill="#1a202c"/>
  <circle cx="260" cy="260" r="3.5" fill="#fff"/>
  <text class="caption" x="30" y="452">Pollutant concentration bin</text>
  <rect x="30" y="460" width="18" height="14" fill="#4caf50" opacity="0.92"/>
  <text class="caption" x="54" y="471">Low</text>
  <rect x="120" y="460" width="18" height="14" fill="#fbc02d" opacity="0.92"/>
  <text class="caption" x="144" y="471">Medium</text>
  <rect x="210" y="460" width="18" height="14" fill="#e53935" opacity="0.92"/>
  <text class="caption" x="234" y="471">High</text>
</svg>
